<svg xmlns="http://www.w3.org/2000/svg" width="48" height="48" viewBox="0 0 48 48"><path fill="#fff" d="M36.36,32.22a2.38,2.38,0,0,1-.62.33,4.24,4.24,0,0,1-1.39.22,2,2,0,0,1-1.1-.38,2.78,2.78,0,0,1-.72-.67,8.87,8.87,0,0,1-2.91-4.72A1,1,0,0,1,30,26a.5.5,0,0,1,.45-.44l.88-.13a.62.62,0,0,0,.52-.7,4,4,0,0,0-.14-2.5,4.72,4.72,0,0,0-1.06-1.63,4.42,4.42,0,0,0-1.87-1.1l-.31-.1a.51.51,0,0,0-.56.12l-.09.09a.62.62,0,0,0-.15.42,1.2,1.2,0,0,0-.06.51,3.42,3.42,0,0,0,.15,1.21.61.61,0,0,1-.13.68l-3.32,3.32a.61.61,0,0,1-.53.18,4.3,4.3,0,0,1-1.57-.67A10.1,10.1,0,0,1,19,22.84a10.1,10.1,0,0,1-2.31-3.23.59.59,0,0,1,.13-.67l1.39-1.39a.58.58,0,0,0,0-.85L15.34,14a.6.6,0,0,0-.48-.22,1,1,0,0,0-.4.07l-1.3.39a.58.58,0,0,0-.4.53,1.3,1.3,0,0,0-.09.52,4.53,4.53,0,0,0,.28,1.57,11.53,11.53,0,0,0,3,6.1,12.39,12.39,0,0,0,6.93,4.68,4.75,4.75,0,0,0,1.75.29,1.77,1.77,0,0,0,.69-.12.59.59,0,0,0,.43-.4l.32-1.22a.62.62,0,0,0,0-.59.62.62,0,0,0-.5-.3Z"/><path fill="#fff" d="M24,4A20,20,0,1,0,44,24,20,20,0,0,0,24,4Zm0,36.4A16.4,16.4,0,1,1,40.4,24,16.42,16.42,0,0,1,24,40.4Z"/></svg>